<svg width="800" height="400" xmlns="http://www.w3.org/2000/svg">
<rect width="100%" height="100%" fill="white"/>
<line x1="50.0" y1="350.0" x2="53.67396388020173" y2="310.0" stroke="gray" stroke-width="2"/>
<line x1="53.67396388020173" y1="310.0" x2="79.63260361197983" y2="250.0" stroke="gray" stroke-width="2"/>
<line x1="79.63260361197983" y1="250.0" x2="91.0292170287099" y2="190.0" stroke="gray" stroke-width="2"/>
<line x1="91.0292170287099" y1="190.0" x2="123.49336488885133" y2="130.00000000000003" stroke="gray" stroke-width="2"/>
<line x1="123.49336488885133" y1="130.00000000000003" x2="136.1493815681966" y2="90.0" stroke="gray" stroke-width="2"/>
<line x1="136.1493815681966" y1="90.0" x2="150.43670582931844" y2="50.0" stroke="gray" stroke-width="2"/>
<line x1="150.43670582931844" y1="50.0" x2="165.58758064970556" y2="50.0" stroke="gray" stroke-width="2"/>
<line x1="165.58758064970556" y1="50.0" x2="179.1691319415096" y2="70.0" stroke="gray" stroke-width="2"/>
<line x1="179.1691319415096" y1="70.0" x2="187.21860648578593" y2="90.0" stroke="gray" stroke-width="2"/>
<line x1="187.21860648578593" y1="90.0" x2="197.67700673372215" y2="110.0" stroke="gray" stroke-width="2"/>
<line x1="197.67700673372215" y1="110.0" x2="209.3342349195616" y2="130.00000000000003" stroke="gray" stroke-width="2"/>
<line x1="209.3342349195616" y1="130.00000000000003" x2="222.64953652832955" y2="150.0" stroke="gray" stroke-width="2"/>
<line x1="222.64953652832955" y1="150.0" x2="239.57259177866058" y2="190.0" stroke="gray" stroke-width="2"/>
<line x1="239.57259177866058" y1="190.0" x2="246.74442847885499" y2="210.0" stroke="gray" stroke-width="2"/>
<line x1="246.74442847885499" y1="210.0" x2="254.7657284534979" y2="230.0" stroke="gray" stroke-width="2"/>
<line x1="254.7657284534979" y1="230.0" x2="287.6186853745809" y2="250.0" stroke="gray" stroke-width="2"/>
<line x1="287.6186853745809" y1="250.0" x2="347.6784154622039" y2="250.0" stroke="gray" stroke-width="2"/>
<line x1="347.6784154622039" y1="250.0" x2="351.0185106922492" y2="250.0" stroke="gray" stroke-width="2"/>
<line x1="351.0185106922492" y1="250.0" x2="436.4452145493477" y2="250.0" stroke="gray" stroke-width="2"/>
<line x1="436.4452145493477" y1="250.0" x2="550.4409320147635" y2="230.0" stroke="gray" stroke-width="2"/>
<line x1="550.4409320147635" y1="230.0" x2="576.0389372552335" y2="210.0" stroke="gray" stroke-width="2"/>
<line x1="576.0389372552335" y1="210.0" x2="582.2824218860057" y2="210.0" stroke="gray" stroke-width="2"/>
<line x1="582.2824218860057" y1="210.0" x2="594.0340348801172" y2="250.0" stroke="gray" stroke-width="2"/>
<line x1="594.0340348801172" y1="250.0" x2="607.4465387541206" y2="250.0" stroke="gray" stroke-width="2"/>
<line x1="607.4465387541206" y1="250.0" x2="624.4569351703153" y2="250.0" stroke="gray" stroke-width="2"/>
<line x1="624.4569351703153" y1="250.0" x2="640.0205674358324" y2="250.0" stroke="gray" stroke-width="2"/>
<line x1="640.0205674358324" y1="250.0" x2="659.8723691995605" y2="250.0" stroke="gray" stroke-width="2"/>
<line x1="659.8723691995605" y1="250.0" x2="670.6251937001663" y2="250.0" stroke="gray" stroke-width="2"/>
<line x1="670.6251937001663" y1="250.0" x2="684.2222410052688" y2="250.0" stroke="gray" stroke-width="2"/>
<line x1="684.2222410052688" y1="250.0" x2="690.6615388949934" y2="250.0" stroke="gray" stroke-width="2"/>
<line x1="690.6615388949934" y1="250.0" x2="698.5278787366524" y2="250.0" stroke="gray" stroke-width="2"/>
<line x1="698.5278787366524" y1="250.0" x2="708.1269546107684" y2="250.0" stroke="gray" stroke-width="2"/>
<line x1="708.1269546107684" y1="250.0" x2="712.9462147465699" y2="250.0" stroke="gray" stroke-width="2"/>
<line x1="712.9462147465699" y1="250.0" x2="723.2271152058154" y2="250.0" stroke="gray" stroke-width="2"/>
<line x1="723.2271152058154" y1="250.0" x2="735.5041839235906" y2="250.0" stroke="gray" stroke-width="2"/>
<line x1="735.5041839235906" y1="250.0" x2="743.574789395092" y2="250.0" stroke="gray" stroke-width="2"/>
<line x1="743.574789395092" y1="250.0" x2="750.0" y2="250.0" stroke="gray" stroke-width="2"/>
<line x1="50" y1="350" x2="750" y2="350" stroke="black" stroke-width="2"/>
</svg>