<svg width="1000" height="600" xmlns="http://www.w3.org/2000/svg">
<rect width="100%" height="100%" fill="white"/>
<line x1="50.0" y1="550.0" x2="105.059945557379" y2="66.66666666666669" stroke="black" stroke-width="2"/>
<line x1="105.059945557379" y1="66.66666666666669" x2="109.9037741786934" y2="50.0" stroke="black" stroke-width="2"/>
<line x1="109.9037741786934" y1="50.0" x2="138.85153095423937" y2="300.0" stroke="black" stroke-width="2"/>
<line x1="138.85153095423937" y1="300.0" x2="151.88522243775637" y2="366.6666666666667" stroke="black" stroke-width="2"/>
<line x1="151.88522243775637" y1="366.6666666666667" x2="188.7700092634244" y2="333.3333333333333" stroke="black" stroke-width="2"/>
<line x1="188.7700092634244" y1="333.3333333333333" x2="204.99931546671834" y2="300.0" stroke="black" stroke-width="2"/>
<line x1="204.99931546671834" y1="300.0" x2="222.20954897257778" y2="300.0" stroke="black" stroke-width="2"/>
<line x1="222.20954897257778" y1="300.0" x2="237.63715113250254" y2="316.66666666666663" stroke="black" stroke-width="2"/>
<line x1="237.63715113250254" y1="316.66666666666663" x2="246.78073776685687" y2="333.3333333333333" stroke="black" stroke-width="2"/>
<line x1="246.78073776685687" y1="333.3333333333333" x2="258.6606795192977" y2="350.0" stroke="black" stroke-width="2"/>
<line x1="258.6606795192977" y1="350.0" x2="271.902398000096" y2="366.6666666666667" stroke="black" stroke-width="2"/>
<line x1="271.902398000096" y1="366.6666666666667" x2="287.027560910127" y2="383.33333333333337" stroke="black" stroke-width="2"/>
<line x1="287.027560910127" y1="383.33333333333337" x2="306.25085566660204" y2="416.66666666666663" stroke="black" stroke-width="2"/>
<line x1="306.25085566660204" y1="416.66666666666663" x2="314.39751292167693" y2="433.3333333333333" stroke="black" stroke-width="2"/>
<line x1="314.39751292167693" y1="433.3333333333333" x2="323.50909540260335" y2="416.66666666666663" stroke="black" stroke-width="2"/>
<line x1="323.50909540260335" y1="416.66666666666663" x2="360.82753850721963" y2="383.33333333333337" stroke="black" stroke-width="2"/>
<line x1="360.82753850721963" y1="383.33333333333337" x2="429.05079236949865" y2="383.33333333333337" stroke="black" stroke-width="2"/>
<line x1="429.05079236949865" y1="383.33333333333337" x2="432.84488475837753" y2="366.6666666666667" stroke="black" stroke-width="2"/>
<line x1="432.84488475837753" y1="366.6666666666667" x2="529.8830781594768" y2="350.0" stroke="black" stroke-width="2"/>
<line x1="529.8830781594768" y1="350.0" x2="659.3734831364782" y2="333.3333333333333" stroke="black" stroke-width="2"/>
<line x1="659.3734831364782" y1="333.3333333333333" x2="688.4508567334071" y2="333.3333333333333" stroke="black" stroke-width="2"/>
<line x1="688.4508567334071" y1="333.3333333333333" x2="695.5429771330323" y2="300.0" stroke="black" stroke-width="2"/>
<line x1="695.5429771330323" y1="300.0" x2="708.8919095278143" y2="333.3333333333333" stroke="black" stroke-width="2"/>
<line x1="708.8919095278143" y1="333.3333333333333" x2="720.3477962473352" y2="350.0" stroke="black" stroke-width="2"/>
<line x1="720.3477962473352" y1="350.0" x2="730.0338532822925" y2="383.33333333333337" stroke="black" stroke-width="2"/>
<line x1="730.0338532822925" y1="383.33333333333337" x2="741.1152914067069" y2="416.66666666666663" stroke="black" stroke-width="2"/>
<line x1="741.1152914067069" y1="416.66666666666663" x2="773.541899659867" y2="466.6666666666667" stroke="black" stroke-width="2"/>
<line x1="773.541899659867" y1="466.6666666666667" x2="788.6254571704417" y2="466.6666666666667" stroke="black" stroke-width="2"/>
<line x1="788.6254571704417" y1="466.6666666666667" x2="804.8211590126363" y2="483.3333333333333" stroke="black" stroke-width="2"/>
<line x1="804.8211590126363" y1="483.3333333333333" x2="834.5082117323672" y2="500.0" stroke="black" stroke-width="2"/>
<line x1="834.5082117323672" y1="500.0" x2="879.3892362919989" y2="466.6666666666667" stroke="black" stroke-width="2"/>
<line x1="879.3892362919989" y1="466.6666666666667" x2="882.8632871465987" y2="483.3333333333333" stroke="black" stroke-width="2"/>
<line x1="882.8632871465987" y1="483.3333333333333" x2="950.0000000000002" y2="516.6666666666666" stroke="black" stroke-width="2"/>
<line x1="50" y1="550" x2="950" y2="550" stroke="black" stroke-width="2"/>
<line x1="950.0000000000002" y1="516.6666666666666" x2="950.0000000000002" y2="550" stroke="black" stroke-width="2"/>
</svg>